<?xml version="1.0" standalone="no"?>
<!DOCTYPE svg PUBLIC "-//W3C//DTD SVG 20010904//EN"
 "http://www.w3.org/TR/2001/REC-SVG-20010904/DTD/svg10.dtd">
<svg version="1.0" xmlns="http://www.w3.org/2000/svg"
 width="512.000000pt" height="512.000000pt" viewBox="0 0 512.000000 512.000000"
 preserveAspectRatio="xMidYMid meet">
<metadata>
Created by potrace 1.14, written by Peter Selinger 2001-2017
</metadata>
<g transform="translate(0.000000,512.000000) scale(0.100000,-0.100000)"
fill="#000000" stroke="none">
<path d="M1995 4900 c-33 -10 -148 -41 -255 -69 -107 -29 -203 -55 -214 -58
-15 -4 238 -262 1209 -1233 l1228 -1228 -44 -11 c-24 -7 -66 -18 -94 -26 -50
-14 -129 -35 -280 -75 -124 -33 -324 -87 -505 -136 -91 -25 -173 -47 -183 -49
-10 -2 -104 -27 -210 -56 -106 -28 -230 -62 -277 -74 -47 -13 -139 -37 -205
-54 -181 -48 -184 -49 -191 -79 -4 -15 -35 -133 -70 -262 -34 -129 -62 -236
-60 -237 1 -1 33 6 72 16 188 52 356 97 634 171 420 112 422 112 990 265 278
75 510 137 516 139 86 17 864 233 864 240 0 5 -635 645 -1412 1423 -992 993
-1418 1413 -1433 1412 -11 0 -47 -9 -80 -19z"/>
<path d="M1304 4663 c-3 -15 -12 -50 -20 -78 -28 -101 -55 -201 -59 -219 -3
-11 -25 -95 -50 -187 -64 -239 -73 -272 -91 -336 -8 -32 -17 -65 -19 -73 -6
-28 -185 -695 -200 -745 -8 -27 -25 -93 -39 -145 -14 -52 -48 -180 -76 -285
-29 -104 -53 -197 -55 -205 -2 -8 -28 -107 -58 -220 -31 -113 -72 -266 -92
-340 -20 -74 -47 -178 -61 -230 -14 -52 -27 -102 -29 -110 -2 -8 -24 -89 -49
-180 -24 -91 -54 -201 -66 -245 -11 -44 -35 -131 -52 -193 l-31 -114 224 -224
c123 -123 227 -224 231 -224 5 0 8 6 8 14 0 7 52 206 115 442 138 510 286
1063 290 1084 2 8 18 67 35 130 18 63 33 122 35 130 2 8 17 65 34 127 17 61
40 146 51 190 12 43 28 103 36 133 8 30 17 62 19 70 2 8 12 49 23 90 105 388
179 664 219 813 26 97 51 176 56 174 4 -1 331 -326 726 -721 l718 -718 114 30
c63 17 159 43 214 57 55 14 121 33 146 41 l47 15 -1127 1127 c-620 620 -1135
1133 -1144 1140 -14 12 -17 10 -23 -15z"/>
<path d="M1711 3313 c-5 -21 -19 -72 -30 -113 -10 -41 -63 -237 -116 -435 -53
-198 -98 -367 -100 -375 -2 -8 -30 -114 -63 -235 -82 -302 -187 -691 -221
-822 -16 -59 -41 -153 -56 -208 -15 -55 -35 -131 -45 -170 -24 -92 -144 -541
-169 -630 -31 -114 -34 -136 -19 -130 12 4 297 81 463 125 44 12 172 46 285
77 113 30 261 69 330 88 69 18 195 52 280 75 85 23 162 43 170 45 17 4 208 56
405 109 193 52 696 187 1050 281 708 189 810 216 811 218 1 1 27 99 59 217 31
118 70 262 86 319 16 58 26 107 24 109 -3 3 -76 -14 -162 -38 -87 -23 -162
-43 -168 -45 -5 -1 -30 -7 -55 -14 -25 -7 -146 -40 -270 -73 -124 -33 -331
-88 -460 -123 -129 -35 -253 -68 -275 -74 -22 -5 -116 -30 -210 -56 -93 -25
-177 -48 -185 -50 -8 -2 -42 -11 -75 -20 -33 -9 -109 -29 -170 -45 -60 -16
-229 -61 -375 -100 -146 -40 -272 -73 -280 -75 -8 -2 -58 -16 -110 -30 -359
-97 -472 -126 -477 -122 -4 5 21 102 148 569 22 81 42 155 44 165 2 10 58 221
125 468 67 248 135 502 151 565 17 63 37 137 45 164 l14 49 -188 188 c-103
104 -190 189 -194 189 -4 0 -12 -17 -17 -37z"/>
</g>
</svg>
